<svg width="20" height="19" xmlns="http://www.w3.org/2000/svg" xmlns:xlink="http://www.w3.org/1999/xlink" xmlns:svgjs="http://svgjs.com/svgjs" viewBox="0 0.067 20 18.866" fill="#ffdd3f"><svg xmlns="http://www.w3.org/2000/svg" width="20" height="19" viewBox="2.412 2.443 19.242 18.151"><path paint-order="stroke fill markers" fill-rule="evenodd" d="M7.335 20.302l4.715-2.235s2.943 1.38 4.815 2.26c-.607-.285 1.566 1.24 1.365-.876l-.5-5.306 3.487-3.884c-.56.623 1.54-1.08-.415-1.448-1.977-.372-5.52-.634-5.52-.634s-1.409-3.255-2.45-5.055c.485.838-.548-1.85-1.586-.04-1.032 1.801-2.544 5.11-2.544 5.11s-3.436.267-5.414.646c.775-.148-1.81-.08-.497 1.375l3.57 3.953-.484 5.319c.048-.526-.676 1.826 1.458.815z"/></svg></svg>