<svg width="23" height="23" xmlns="http://www.w3.org/2000/svg" xmlns:xlink="http://www.w3.org/1999/xlink" xmlns:svgjs="http://svgjs.com/svgjs" fill="#fff"><svg xmlns="http://www.w3.org/2000/svg" width="23" height="23" viewbox="1.8 1.8 22.4 22.4"><path paint-order="stroke fill markers" fill-rule="evenodd" d="M21.4 20h-3.62l-3.79 3.79a1.395 1.395 0 0 1-1.98 0L8.22 20H4.6a2.8 2.8 0 0 1-2.8-2.8V4.599a2.8 2.8 0 0 1 2.8-2.8h16.8a2.8 2.8 0 0 1 2.8 2.8v12.6a2.8 2.8 0 0 1-2.8 2.8zm0-14A1.4 1.4 0 0 0 20 4.598H6a1.4 1.4 0 0 0-1.4 1.4v9.8A1.4 1.4 0 0 0 6 17.2h2.8c.386 0 .736.157.99.41L13 20.82l3.21-3.21c.253-.253.603-.41.99-.41H20a1.4 1.4 0 0 0 1.4-1.4V6zm-4.2 8.4H8.8a1.4 1.4 0 1 1 0-2.8h8.4a1.4 1.4 0 0 1 0 2.8zm0-4.201H8.8a1.4 1.4 0 1 1 0-2.8h8.4a1.4 1.4 0 0 1 0 2.8z"/></svg></svg>