<svg width="21" height="21" xmlns="http://www.w3.org/2000/svg" xmlns:xlink="http://www.w3.org/1999/xlink" xmlns:svgjs="http://svgjs.com/svgjs" fill="#b7bacd" opacity=".702"><svg xmlns="http://www.w3.org/2000/svg" width="21" height="21" viewbox="2 1.999 20 20"><path paint-order="stroke fill markers" fill-rule="evenodd" d="M21.946 9.765l.024.006-2.5 11.25-.024-.006c-.125.559-.6.984-1.196.984H5.75c-.596 0-1.071-.425-1.196-.984l-.024.006-2.5-11.25.024-.006C2.034 9.677 2 9.594 2 9.5c0-.691.56-1.25 1.25-1.25h2.5a6.25 6.25 0 1 1 12.5 0h2.5c.69 0 1.25.559 1.25 1.25 0 .094-.034.177-.054.265zM12 4.5a3.75 3.75 0 0 0-3.75 3.75h7.5A3.75 3.75 0 0 0 12 4.5zm5 8.75c-.69 0-1.25-.56-1.25-1.25v-1.25h-7.5V12a1.25 1.25 0 1 1-2.5 0v-1.25h-.942l1.945 8.75h10.494l1.945-8.75h-.942V12c0 .69-.56 1.25-1.25 1.25z"/></svg></svg>