<svg width="20" height="22" xmlns="http://www.w3.org/2000/svg" xmlns:xlink="http://www.w3.org/1999/xlink" xmlns:svgjs="http://svgjs.com/svgjs" viewBox="0.062 0 19.876 22" fill="#b7bacd" opacity=".702"><svg xmlns="http://www.w3.org/2000/svg" width="20" height="22"><path paint-order="stroke fill markers" fill-rule="evenodd" d="M19.993 13.308c0 2.678-2.125 4.849-4.747 4.849-1.554 0-2.914-.775-3.774-1.957l-.023.017-.95-1.293-.949 1.293-.013-.01c-.866 1.177-2.231 1.95-3.784 1.95-2.621 0-4.746-2.171-4.746-4.85a4.88 4.88 0 01.962-2.9l-.013-.01S8.918 1.993 10.5 1.993c1.582 0 8.543 8.406 8.543 8.406l-.013.01c.596.81.963 1.808.963 2.9zM8.918 19.773v-1.616c0-.892.708-1.617 1.582-1.617.874 0 1.582.725 1.582 1.617v1.616c.874 0 1.582.724 1.582 1.617 0 .892-.708 1.617-1.582 1.617H8.918c-.874 0-1.582-.725-1.582-1.617 0-.893.708-1.617 1.582-1.617z"/></svg></svg>